<svg width="30" height="30" viewBox="0 0 30 30" fill="none" xmlns="http://www.w3.org/2000/svg">
<circle cx="15" cy="15" r="15" fill="#F6EEFF"/>
<path d="M19.2481 12.037C19.2271 12.0157 19.2057 11.9953 19.1839 11.9757C18.9221 11.7401 18.5164 11.5371 17.8259 11.399C17.1294 11.2597 16.2149 11.2 15 11.2C13.3862 11.2 12.321 11.3067 11.6002 11.5484C11.2197 11.676 10.9482 11.8358 10.7443 12.0447C11.0405 12.3428 11.4455 12.7258 11.9149 13.1063C12.4114 13.5088 12.9605 13.8927 13.513 14.1721C14.0728 14.4552 14.5763 14.6006 14.9987 14.6C15.4202 14.5994 15.9225 14.4533 16.4808 14.17C17.0318 13.8903 17.5792 13.5066 18.0741 13.1045C18.5458 12.7212 18.9523 12.3355 19.2481 12.037ZM10.0543 14.1468C10.0179 14.5596 10 15.0398 10 15.6C10 17.848 10.2973 18.7574 10.8161 19.2243C11.0779 19.4599 11.4836 19.6629 12.1741 19.801C12.8706 19.9403 13.7851 20 15 20C16.2149 20 17.1294 19.9403 17.8259 19.801C18.5164 19.6629 18.9221 19.4599 19.1839 19.2243C19.7027 18.7574 20 17.848 20 15.6C20 15.0309 19.9809 14.5476 19.9441 14.1355C19.7562 14.3045 19.5523 14.4804 19.3353 14.6567C18.7735 15.1132 18.105 15.5884 17.3861 15.9534C16.6744 16.3146 15.8528 16.5989 15.0013 16.6C14.148 16.6011 13.3242 16.3178 12.6105 15.9569C11.8895 15.5923 11.219 15.1168 10.6554 14.6599C10.4414 14.4864 10.2401 14.3134 10.0543 14.1468Z" stroke="#828282" stroke-width="2" stroke-linecap="round" stroke-linejoin="round"/>
</svg>
