<svg width="30" height="30" viewBox="0 0 30 30" fill="none" xmlns="http://www.w3.org/2000/svg">
<circle cx="15" cy="15" r="15" fill="#F6EEFF"/>
<path d="M15.8928 16.5709C16.2795 16.8433 16.6848 17.0723 17.1027 17.2456C17.3621 17.3397 17.7693 17.0733 18.0686 16.8774L18.0686 16.8774C18.1435 16.8284 18.2116 16.7838 18.2689 16.7504L18.2878 16.7398C18.5697 16.5815 18.8829 16.4056 19.2855 16.4904C19.6472 16.5647 20.8883 17.5428 21.2313 17.8894C21.4558 18.1123 21.5805 18.3475 21.5992 18.5889C21.6367 19.4865 20.433 20.4955 20.1461 20.6688C19.5349 21.1145 18.718 21.1083 17.7326 20.6626C16.6786 20.2355 15.4188 19.3379 14.2027 18.2484C13.7674 17.8584 12.9313 17.0373 12.6934 16.7631C11.4648 15.4322 10.4296 14.0022 9.94311 12.8447C9.71236 12.3557 9.6001 11.9038 9.6001 11.5014C9.6001 11.1052 9.71236 10.7524 9.93064 10.4491C10.0616 10.22 11.1156 8.96961 12.0448 9.00056C12.2756 9.02533 12.5126 9.14294 12.7433 9.36579C13.0926 9.70625 14.0967 10.9381 14.1715 11.3033C14.2569 11.6968 14.0798 12.0074 13.9203 12.2872L13.9096 12.3061C13.8736 12.3682 13.8249 12.4419 13.7716 12.5225L13.7716 12.5225C13.5753 12.8192 13.3173 13.2092 13.41 13.4575C13.6414 14.027 13.9719 14.5841 14.3704 15.0979C14.8127 15.6267 15.5061 16.2985 15.8928 16.5709Z" stroke="#828282" stroke-width="2"/>
</svg>
